<svg width="103" height="57" viewBox="0 0 103 57" fill="none" xmlns="http://www.w3.org/2000/svg">
<g filter="url(#filter0_d_1_59)">
<path d="M12 23.5C12 14.3873 19.3873 7 28.5 7H71C82.0457 7 91 15.9543 91 27V40H28.5C19.3873 40 12 32.6127 12 23.5Z" fill="#FF7A50"/>
</g>
<path d="M53.121 18.293C52.9335 18.4805 52.8282 18.7348 52.8282 19C52.8282 19.2652 52.9335 19.5195 53.121 19.707L56.413 23L46 23.007C45.7348 23.007 45.4804 23.1124 45.2929 23.2999C45.1054 23.4874 45 23.7418 45 24.007C45 24.2722 45.1054 24.5266 45.2929 24.7141C45.4804 24.9016 45.7348 25.007 46 25.007L56.414 25L53.121 28.293C53.0255 28.3852 52.9493 28.4956 52.8969 28.6176C52.8445 28.7396 52.8169 28.8708 52.8157 29.0036C52.8146 29.1364 52.8399 29.2681 52.8902 29.391C52.9405 29.5138 53.0147 29.6255 53.1086 29.7194C53.2025 29.8133 53.3141 29.8875 53.437 29.9378C53.5599 29.9881 53.6916 30.0134 53.8244 30.0123C53.9572 30.0111 54.0884 29.9835 54.2104 29.9311C54.3324 29.8787 54.4428 29.8025 54.535 29.707L58.121 26.122C58.3996 25.8434 58.6207 25.5127 58.7715 25.1487C58.9222 24.7847 58.9999 24.3945 58.9999 24.0005C58.9999 23.6065 58.9222 23.2163 58.7715 22.8523C58.6207 22.4883 58.3996 22.1576 58.121 21.879L54.535 18.293C54.3475 18.1055 54.0932 18.0002 53.828 18.0002C53.5628 18.0002 53.3085 18.1055 53.121 18.293Z" fill="white"/>
<defs>
<filter id="filter0_d_1_59" x="0" y="0" width="103" height="57" filterUnits="userSpaceOnUse" color-interpolation-filters="sRGB">
<feFlood flood-opacity="0" result="BackgroundImageFix"/>
<feColorMatrix in="SourceAlpha" type="matrix" values="0 0 0 0 0 0 0 0 0 0 0 0 0 0 0 0 0 0 127 0" result="hardAlpha"/>
<feOffset dy="5"/>
<feGaussianBlur stdDeviation="6"/>
<feColorMatrix type="matrix" values="0 0 0 0 1 0 0 0 0 0.407843 0 0 0 0 0.219608 0 0 0 0.19 0"/>
<feBlend mode="normal" in2="BackgroundImageFix" result="effect1_dropShadow_1_59"/>
<feBlend mode="normal" in="SourceGraphic" in2="effect1_dropShadow_1_59" result="shape"/>
</filter>
</defs>
</svg>
